<?xml version="1.0" encoding="UTF-8" standalone="no"?>
<!DOCTYPE svg PUBLIC "-//W3C//DTD SVG 1.1//EN"
"http://www.w3.org/Graphics/SVG/1.1/DTD/svg11.dtd">


<!-- Page 1 -->
<svg x="0" y="0" width="1043" height="831" version="1.1" xmlns="http://www.w3.org/2000/svg" xmlns:xlink="http://www.w3.org/1999/xlink"
style="display: block;margin-left: auto;margin-right: auto;">
<defs>

<style type="text/css"><![CDATA[

.g2_1{
fill: #FFFFFF;
}
.g1_1{
fill: #004275;
}


]]></style>

</defs>
<path d="M0,0
L0,831
L1043,831
L1043,0 Z " 
fill="#FFFFFF" stroke="none" />
<path d="M0,831l1043,0L1043,0L0,0L0,831Z" class="g1_1" />
<path d="M516.4,301.6c-4.3,-16.5,-8,-53.9,-8.3,-56.4c-0.6,3.8,-4.9,40.7,-9.2,56.4l-4,14.5l25.3,0ZM538.5,153.4c5.7,0,8.1,1.8,8.1,7.5l0,17c0,5.6,-2.4,7.8,-8.1,7.8l-59.5,0c-5.7,0,-8.1,-2.2,-8.1,-7.8l0,-17c0,-5.7,2.4,-7.5,8.1,-7.5Zm-5.1,56.5L582.2,377c1.6,5.1,-0.3,8.1,-5.9,8.1l-30,0c-5.6,0,-8,-3,-9.4,-8.1l-7,-25.9l-44.7,0l-7,25.9c-1.4,5.1,-3.8,8.1,-9.5,8.1l-27.2,0c-5.6,0,-7.5,-3,-5.9,-8.1L484.4,209.9c1.6,-5.3,4.3,-8,9.9,-8l29.1,0c5.7,0,8.4,2.7,10,8Z" class="g2_1" />
<path d="M412,376.7c0,5.7,-1.9,8.1,-7.5,8.1l-27.8,0c-5.6,0,-7.8,-2.4,-7.8,-8.1l0,-85.4c-0.3,0.8,-5.4,19.7,-8.6,28.3L348.4,349c-2.1,5.4,-5.1,8.1,-10.5,8.1l-23.4,0c-5.4,0,-8.1,-3.3,-10.3,-8.1L289.4,314.8c-2.9,-7,-6.4,-20.5,-7,-22.7l0,84.6c0,5.7,-1.9,8.1,-7.5,8.1l-26.4,0c-5.7,0,-7.9,-2.4,-7.9,-8.1l0,-167c0,-5.7,2.2,-8.1,7.9,-8.1l26.4,0c4,0,5.6,1.6,7,4.3l36.6,82.5c3.8,9.1,7.3,20.2,7.8,21.2c0,-0.5,2.7,-8.8,7.8,-20.7l35.3,-83.5c1.1,-2.7,3.3,-3.8,7.3,-3.8l27.8,0c5.6,0,7.5,2.4,7.5,8.1Z" class="g2_1" />
<path d="M742.3,320.4c13.8,0,19.5,-12.6,19.5,-27.3c0,-14.8,-5.7,-27.1,-19.5,-27.1l-89.1,0c-13.8,0,-19.5,12.3,-19.5,27.1c0,14.7,5.7,27.3,19.5,27.3ZM751,216.3c25.8,0,51.4,20.2,51.4,76.8c0,56.5,-25.6,77,-51.4,77l-106.5,0c-25.9,0,-51.5,-20.5,-51.5,-77c0,-56.6,25.6,-76.8,51.5,-76.8Z" class="g2_1" />
<path d="M243,461.7c0,-12.4,-8.6,-17,-21,-17c-12.4,0,-21.3,4.6,-21.3,17l0,2.7c0,7.3,5.7,10.5,8.7,11.6l45.2,15.3c20,6.8,33.7,20.8,33.7,40.7l0,19.2c0,23.1,-16.4,46,-67.1,46c-50.6,0,-67.6,-22.9,-67.6,-46l0,-18.1c0,-5.6,2.1,-8.1,7.8,-8.1l28,0c5.7,0,7.6,2.5,7.6,8.1l0,12.1c0,12.4,10.5,17,23.7,17c13.2,0,24,-4.6,24,-17l0,-5.3c0,-9.7,-13,-14.3,-23.2,-18.1L182.7,507.2C168.9,502.1,157.6,487,157.6,471.4l0,-15.6c0,-23.2,14,-46.1,63.9,-46.1c49.8,0,64.9,22.9,64.9,46.1l0,10c0,5.6,-2.1,8,-7.8,8l-28,0c-5.7,0,-7.6,-2.4,-7.6,-8Z" class="g2_1" />
<path d="M381.5,511.6c-4.3,-16.5,-8,-53.9,-8.3,-56.4c-0.6,3.8,-4.9,40.7,-9.2,56.4l-4,14.5l25.3,0Zm17,-91.7L447.3,587c1.6,5.1,-0.3,8.1,-5.9,8.1l-29.9,0c-5.7,0,-8.1,-3,-9.5,-8.1l-7,-25.9l-44.7,0l-7,25.9c-1.4,5.1,-3.8,8.1,-9.5,8.1l-27.2,0c-5.6,0,-7.5,-3,-5.9,-8.1L349.5,419.9c1.6,-5.3,4.3,-8,9.9,-8l29.1,0c5.7,0,8.4,2.7,10,8Z" class="g2_1" />
<path d="M604.1,587c0,5.7,-1.9,8.1,-7.5,8.1l-26.4,0c-4.1,0,-5.7,-1.1,-7.3,-3.8L519.8,519.6c-4.6,-7.2,-8.7,-16.7,-11.6,-24.2l0,91.6c0,5.7,-1.9,8.1,-7.6,8.1l-26.4,0c-5.6,0,-7.8,-2.4,-7.8,-8.1l0,-167.1c0,-5.6,2.2,-8,7.8,-8l26.4,0c3.5,0,5.7,1,6.8,3.2l45.5,76.2c3.2,5.7,6.7,13.8,9.4,20.3l0,-91.7c0,-5.6,2.2,-8,7.9,-8l26.4,0c5.6,0,7.5,2.4,7.5,8Z" class="g2_1" />
<path d="M744,411.9c5.6,0,8,1.8,8,7.5l0,21c0,5.7,-2.4,7.8,-8,7.8l-34.5,0l0,138.8c0,5.7,-1.9,8.1,-7.6,8.1l-29.1,0c-5.6,0,-7.8,-2.4,-7.8,-8.1l0,-138.8l-34.5,0c-5.6,0,-8.1,-2.1,-8.1,-7.8l0,-21c0,-5.7,2.5,-7.5,8.1,-7.5Z" class="g2_1" />
<path d="M823.2,511.6c-4.3,-16.5,-8.1,-53.9,-8.4,-56.4c-0.5,3.8,-4.8,40.7,-9.1,56.4l-4.1,14.5l25.4,0Zm17,-91.7L888.9,587c1.6,5.1,-0.2,8.1,-5.9,8.1l-29.9,0c-5.7,0,-8.1,-3,-9.4,-8.1l-7.1,-25.9l-44.7,0l-7,25.9c-1.3,5.1,-3.8,8.1,-9.4,8.1l-27.2,0c-5.7,0,-7.6,-3,-6,-8.1L791.1,419.9c1.6,-5.3,4.3,-8,10,-8l29.1,0c5.6,0,8.3,2.7,10,8Z" class="g2_1" />
<path d="M168,655.9c0,-2.2,-1.4,-3.5,-5,-3.5c-3.6,0,-4.9,1.3,-4.9,3.5l0,0.8c0,1.9,1.2,2.4,2,2.7l7.5,2.9c2.5,0.9,4.5,2.5,4.5,5.5l0,3.4c0,3.4,-2.3,6.3,-9.2,6.3c-6.8,0,-9.2,-2.9,-9.2,-6.3l0,-2.3c0,-0.6,0.3,-0.9,0.8,-0.9l2.4,0c0.5,0,0.8,0.3,0.8,0.9l0,1.8c0,2.2,1.5,3.5,5.2,3.5c3.7,0,5.3,-1.3,5.3,-3.5l0,-1.9c0,-2.1,-1.9,-2.8,-3.5,-3.4l-6.9,-2.6c-1.8,-0.7,-3.6,-2.6,-3.6,-5.1l0,-2.4c0,-3.3,2.1,-6.3,8.8,-6.3c6.7,0,8.9,3,8.9,6.3l0,1.8c0,0.6,-0.2,0.8,-0.8,0.8l-2.4,0c-0.6,0,-0.7,-0.2,-0.7,-0.8Z" class="g2_1" />
<path d="M182.2,677.2c-0.6,0,-0.8,-0.2,-0.8,-0.8l0,-26.2c0,-0.6,0.2,-0.8,0.8,-0.8l14,0c0.5,0,0.7,0.2,0.7,0.7l0,1.9c0,0.6,-0.2,0.8,-0.7,0.8l-10.8,0l0,8.2l10,0c0.6,0,0.8,0.2,0.8,0.8l0,1.8c0,0.5,-0.2,0.8,-0.8,0.8l-10,0l0,9.4l11.2,0c0.6,0,0.8,0.2,0.8,0.8l0,1.8c0,0.6,-0.2,0.8,-0.8,0.8Z" class="g2_1" />
<path d="M210.3,652.8l0,10l5,0c3.7,0,5.4,-1.3,5.4,-3.6l0,-2.9c0,-2.2,-1.7,-3.5,-5.4,-3.5Zm0,13.4l0,10.2c0,0.6,-0.2,0.8,-0.8,0.8l-2.5,0c-0.5,0,-0.7,-0.2,-0.7,-0.8l0,-26.2c0,-0.6,0.2,-0.8,0.7,-0.8l8.3,0c7.1,0,9.3,2.9,9.3,6.3l0,4.2c0,2.5,-1.2,4.8,-4.7,5.8l4.9,10.7c0.2,0.5,-0.2,0.8,-0.8,0.8l-2.4,0c-0.6,0,-0.7,-0.3,-0.9,-0.8L216,666.2l-0.7,0Z" class="g2_1" />
<path d="M240.2,677.2c-0.5,0,-0.8,-0.2,-1,-0.8l-7.9,-26.3c-0.2,-0.5,0,-0.7,0.6,-0.7l2.7,0c0.5,0,0.7,0.2,0.9,0.7l5.1,17c0.5,1.8,0.9,5,0.9,5c0,0,0.6,-3.4,1.1,-4.9l5.1,-17.1c0.1,-0.5,0.3,-0.7,0.9,-0.7l2.5,0c0.6,0,0.8,0.2,0.6,0.7l-8,26.3c-0.1,0.6,-0.4,0.8,-0.9,0.8Z" class="g2_1" />
<path d="M263.5,676.4c0,0.6,-0.2,0.8,-0.8,0.8l-2.5,0c-0.5,0,-0.7,-0.2,-0.7,-0.8l0,-26.2c0,-0.6,0.2,-0.8,0.7,-0.8l2.5,0c0.6,0,0.8,0.2,0.8,0.8Z" class="g2_1" />
<path d="M283.2,679.3c1.9,0,3.5,1,3.5,3.3c0,2.3,-1.6,3.3,-3.5,3.3l-4.6,0c-0.6,0,-0.8,-0.2,-0.8,-0.8l0,-0.8c0,-0.6,0.2,-0.8,0.8,-0.8l4,0c0.6,0,1.3,-0.1,1.3,-0.9c0,-0.9,-0.7,-0.9,-1.3,-0.9l-2.7,0c-1,0,-1.2,-0.3,-1,-1l0.8,-3.3c-4.9,-0.7,-6.4,-3.3,-6.4,-6.2l0,-15.9c0,-3.3,2,-6.3,9.1,-6.3c7,0,9,3,9,6.3l0,2c0,0.6,-0.2,0.9,-0.7,0.9l-2.4,0c-0.5,0,-0.7,-0.3,-0.7,-0.9l0,-1.3c0,-2.2,-1.5,-3.6,-5.2,-3.6c-3.7,0,-5.1,1.4,-5.1,3.6l0,14.6c0,2.2,1.4,3.5,5.1,3.5c3.7,0,5.2,-1.3,5.2,-3.5l0,-1.9c0,-0.6,0.2,-0.8,0.7,-0.8l2.4,0c0.5,0,0.7,0.2,0.7,0.8l0,2.5c0,3.4,-2,6.3,-9,6.3l-0.1,0l-0.5,1.8Z" class="g2_1" />
<path d="M314.5,656c0,-2.2,-1.7,-3.6,-5.4,-3.6c-3.6,0,-5.2,1.4,-5.2,3.6l0,14.6c0,2.2,1.6,3.5,5.2,3.5c3.7,0,5.4,-1.3,5.4,-3.5Zm-14.7,-0.7c0,-3.3,2.3,-6.3,9.3,-6.3c7.1,0,9.4,3,9.4,6.3l0,15.9c0,3.4,-2.3,6.3,-9.4,6.3c-7,0,-9.3,-2.9,-9.3,-6.3Z" class="g2_1" />
<path d="M341.8,655.9c0,-2.2,-1.3,-3.5,-5,-3.5c-3.6,0,-4.9,1.3,-4.9,3.5l0,0.8c0,1.9,1.2,2.4,2.1,2.7l7.4,2.9c2.5,0.9,4.5,2.5,4.5,5.5l0,3.4c0,3.4,-2.3,6.3,-9.1,6.3c-6.9,0,-9.3,-2.9,-9.3,-6.3l0,-2.3c0,-0.6,0.3,-0.9,0.8,-0.9l2.4,0c0.6,0,0.8,0.3,0.8,0.9l0,1.8c0,2.2,1.5,3.5,5.2,3.5c3.7,0,5.3,-1.3,5.3,-3.5l0,-1.9c0,-2.1,-1.8,-2.8,-3.4,-3.4l-7,-2.6c-1.8,-0.7,-3.6,-2.6,-3.6,-5.1l0,-2.4c0,-3.3,2.1,-6.3,8.8,-6.3c6.7,0,8.9,3,8.9,6.3l0,1.8c0,0.6,-0.2,0.8,-0.7,0.8l-2.5,0c-0.5,0,-0.7,-0.2,-0.7,-0.8Z" class="g2_1" />
<path d="M368.2,677.2c-0.5,0,-0.7,-0.2,-0.7,-0.8l0,-26.2c0,-0.6,0.2,-0.8,0.7,-0.8l14.1,0c0.5,0,0.7,0.2,0.7,0.7l0,1.9c0,0.6,-0.2,0.8,-0.7,0.8l-10.8,0l0,8.2l10,0c0.6,0,0.8,0.2,0.8,0.8l0,1.8c0,0.5,-0.2,0.8,-0.8,0.8l-10,0l0,9.4l11.2,0c0.5,0,0.8,0.2,0.8,0.8l0,1.8c0,0.6,-0.3,0.8,-0.8,0.8Z" class="g2_1" />
<path d="M408.6,652.8l0,10.7l5.1,0c3.7,0,5.3,-1.4,5.3,-3.6l0,-3.6c0,-2.2,-1.6,-3.5,-5.3,-3.5Zm0,14.1l0,9.5c0,0.6,-0.2,0.8,-0.7,0.8l-2.5,0c-0.6,0,-0.8,-0.2,-0.8,-0.8l0,-26.2c0,-0.6,0.2,-0.8,0.8,-0.8l8.3,0c7,0,9.3,2.9,9.3,6.3l0,4.8c0,3.4,-2.3,6.4,-9.3,6.4Z" class="g2_1" />
<path d="M432.4,677.2c-0.5,0,-0.7,-0.2,-0.7,-0.8l0,-26.2c0,-0.6,0.2,-0.8,0.7,-0.8l14,0c0.6,0,0.8,0.2,0.8,0.7l0,1.9c0,0.6,-0.2,0.8,-0.8,0.8l-10.8,0l0,8.2l10.1,0c0.6,0,0.8,0.2,0.8,0.8l0,1.8c0,0.5,-0.2,0.8,-0.8,0.8l-10.1,0l0,9.4l11.3,0c0.5,0,0.8,0.2,0.8,0.8l0,1.8c0,0.6,-0.3,0.8,-0.8,0.8Z" class="g2_1" />
<path d="M470,655.9c0,-2.2,-1.4,-3.5,-5,-3.5c-3.6,0,-4.9,1.3,-4.9,3.5l0,0.8c0,1.9,1.2,2.4,2.1,2.7l7.4,2.9c2.5,0.9,4.5,2.5,4.5,5.5l0,3.4c0,3.4,-2.3,6.3,-9.2,6.3c-6.8,0,-9.2,-2.9,-9.2,-6.3l0,-2.3c0,-0.6,0.3,-0.9,0.8,-0.9l2.4,0c0.6,0,0.8,0.3,0.8,0.9l0,1.8c0,2.2,1.5,3.5,5.2,3.5c3.7,0,5.3,-1.3,5.3,-3.5l0,-1.9c0,-2.1,-1.9,-2.8,-3.4,-3.4l-7,-2.6c-1.8,-0.7,-3.6,-2.6,-3.6,-5.1l0,-2.4c0,-3.3,2.1,-6.3,8.8,-6.3c6.7,0,8.9,3,8.9,6.3l0,1.8c0,0.6,-0.2,0.8,-0.8,0.8l-2.4,0c-0.5,0,-0.7,-0.2,-0.7,-0.8Z" class="g2_1" />
<path d="M496.9,655.9c0,-2.2,-1.4,-3.5,-5,-3.5c-3.6,0,-4.9,1.3,-4.9,3.5l0,0.8c0,1.9,1.2,2.4,2,2.7l7.5,2.9c2.5,0.9,4.5,2.5,4.5,5.5l0,3.4c0,3.4,-2.3,6.3,-9.2,6.3c-6.8,0,-9.2,-2.9,-9.2,-6.3l0,-2.3c0,-0.6,0.3,-0.9,0.8,-0.9l2.4,0c0.5,0,0.7,0.3,0.7,0.9l0,1.8c0,2.2,1.6,3.5,5.3,3.5c3.7,0,5.3,-1.3,5.3,-3.5l0,-1.9c0,-2.1,-1.9,-2.8,-3.5,-3.4l-6.9,-2.6c-1.8,-0.7,-3.6,-2.6,-3.6,-5.1l0,-2.4c0,-3.3,2.1,-6.3,8.8,-6.3c6.6,0,8.9,3,8.9,6.3l0,1.8c0,0.6,-0.2,0.8,-0.8,0.8l-2.4,0c-0.6,0,-0.7,-0.2,-0.7,-0.8Z" class="g2_1" />
<path d="M524.5,656c0,-2.2,-1.7,-3.6,-5.3,-3.6c-3.7,0,-5.3,1.4,-5.3,3.6l0,14.6c0,2.2,1.6,3.5,5.3,3.5c3.6,0,5.3,-1.3,5.3,-3.5Zm-14.6,-0.7c0,-3.3,2.3,-6.3,9.3,-6.3c7,0,9.3,3,9.3,6.3l0,15.9c0,3.4,-2.3,6.3,-9.3,6.3c-7,0,-9.3,-2.9,-9.3,-6.3Z" class="g2_1" />
<path d="M546.9,659.4c-0.5,-1.5,-1.1,-5.5,-1.1,-5.9c-0.1,0.3,-0.7,4.1,-1.2,5.9l-2.3,7.5l6.9,0Zm0.2,-10c0.5,0,0.8,0.2,1,0.7l7.9,26.3c0.2,0.5,0,0.8,-0.6,0.8l-2.6,0c-0.5,0,-0.7,-0.3,-0.9,-0.8L550,670.1l-8.6,0l-1.9,6.3c-0.1,0.5,-0.4,0.8,-0.9,0.8l-2.4,0c-0.5,0,-0.7,-0.3,-0.6,-0.8l8,-26.3c0.2,-0.5,0.4,-0.7,1,-0.7Z" class="g2_1" />
<path d="M576.4,655.9c0,-2.2,-1.4,-3.5,-5,-3.5c-3.6,0,-4.9,1.3,-4.9,3.5l0,0.8c0,1.9,1.2,2.4,2,2.7l7.5,2.9c2.5,0.9,4.5,2.5,4.5,5.5l0,3.4c0,3.4,-2.3,6.3,-9.2,6.3c-6.8,0,-9.2,-2.9,-9.2,-6.3l0,-2.3c0,-0.6,0.3,-0.9,0.8,-0.9l2.4,0c0.5,0,0.7,0.3,0.7,0.9l0,1.8c0,2.2,1.6,3.5,5.3,3.5c3.7,0,5.3,-1.3,5.3,-3.5l0,-1.9c0,-2.1,-1.9,-2.8,-3.5,-3.4l-6.9,-2.6c-1.8,-0.7,-3.6,-2.6,-3.6,-5.1l0,-2.4c0,-3.3,2.1,-6.3,8.8,-6.3c6.6,0,8.9,3,8.9,6.3l0,1.8c0,0.6,-0.2,0.8,-0.8,0.8l-2.4,0c-0.6,0,-0.7,-0.2,-0.7,-0.8Z" class="g2_1" />
<path d="M606,652.8l0,21l5.4,0c3.7,0,5.3,-1.3,5.3,-3.5l0,-14c0,-2.2,-1.6,-3.5,-5.3,-3.5Zm-3.3,24.4c-0.5,0,-0.6,-0.3,-0.6,-0.8l0,-26.2c0,-0.6,0.2,-0.8,0.7,-0.8l8.6,0c7,0,9.3,2.9,9.3,6.3l0,15.2c0,3.4,-2.3,6.3,-9.3,6.3Z" class="g2_1" />
<path d="M631.3,677.2c-0.5,0,-0.7,-0.2,-0.7,-0.8l0,-26.2c0,-0.6,0.2,-0.8,0.7,-0.8l14,0c0.6,0,0.8,0.2,0.8,0.7l0,1.9c0,0.6,-0.2,0.8,-0.8,0.8l-10.7,0l0,8.2l10,0c0.6,0,0.8,0.2,0.8,0.8l0,1.8c0,0.5,-0.2,0.8,-0.8,0.8l-10,0l0,9.4l11.2,0c0.5,0,0.8,0.2,0.8,0.8l0,1.8c0,0.6,-0.3,0.8,-0.8,0.8Z" class="g2_1" />
<path d="M685.4,671.2c0,3.4,-2,6.3,-9.1,6.3c-7,0,-9,-2.9,-9,-6.3l0,-15.9c0,-3.3,2,-6.3,9,-6.3c7.1,0,9.1,3,9.1,6.3l0,2.1c0,0.5,-0.2,0.8,-0.8,0.8l-2.3,0c-0.6,0,-0.8,-0.3,-0.8,-0.8l0,-1.4c0,-2.2,-1.5,-3.6,-5.1,-3.6c-3.7,0,-5.1,1.4,-5.1,3.6l0,14.6c0,2.2,1.4,3.5,5.1,3.5c3.6,0,5.1,-1.3,5.1,-3.5l0,-1.9c0,-0.6,0.2,-0.8,0.8,-0.8l2.3,0c0.6,0,0.8,0.2,0.8,0.8Z" class="g2_1" />
<path d="M708.4,656c0,-2.2,-1.6,-3.6,-5.3,-3.6c-3.7,0,-5.3,1.4,-5.3,3.6l0,14.6c0,2.2,1.6,3.5,5.3,3.5c3.7,0,5.3,-1.3,5.3,-3.5Zm-14.6,-0.7c0,-3.3,2.3,-6.3,9.3,-6.3c7,0,9.3,3,9.3,6.3l0,15.9c0,3.4,-2.3,6.3,-9.3,6.3c-7,0,-9.3,-2.9,-9.3,-6.3Z" class="g2_1" />
<path d="M740.9,676.4c0,0.6,-0.2,0.8,-0.7,0.8l-2.3,0c-0.4,0,-0.6,-0.1,-0.7,-0.3L727.5,660c-0.9,-1.5,-1.4,-2.8,-1.4,-3l0,19.4c0,0.6,-0.2,0.8,-0.8,0.8l-2.3,0c-0.5,0,-0.7,-0.2,-0.7,-0.8l0,-26.3c0,-0.5,0.2,-0.7,0.7,-0.7l2.3,0c0.4,0,0.6,0.1,0.7,0.3l9.9,17.2c0.5,1,1.2,2.7,1.2,2.7l0,-19.5c0,-0.5,0.3,-0.7,0.8,-0.7l2.3,0c0.5,0,0.7,0.2,0.7,0.7Z" class="g2_1" />
<path d="M767,649.4c0.5,0,0.8,0.2,0.8,0.7l0,1.9c0,0.6,-0.3,0.8,-0.8,0.8l-11.8,0l0,8.3l11.1,0c0.5,0,0.7,0.2,0.7,0.8l0,1.8c0,0.6,-0.2,0.8,-0.7,0.8l-11.1,0l0,11.9c0,0.6,-0.2,0.8,-0.7,0.8l-2.5,0c-0.6,0,-0.8,-0.2,-0.8,-0.8l0,-26.2c0,-0.6,0.2,-0.8,0.8,-0.8Z" class="g2_1" />
<path d="M780.3,676.4c0,0.6,-0.2,0.8,-0.8,0.8l-2.5,0c-0.5,0,-0.7,-0.2,-0.7,-0.8l0,-26.2c0,-0.6,0.2,-0.8,0.7,-0.8l2.5,0c0.6,0,0.8,0.2,0.8,0.8Z" class="g2_1" />
<path d="M799.3,659.4c-0.5,-1.5,-1.1,-5.5,-1.1,-5.9c-0.1,0.3,-0.6,4.1,-1.2,5.9l-2.3,7.5l6.9,0Zm0.2,-10c0.6,0,0.9,0.2,1,0.7l8,26.3c0.1,0.5,-0.1,0.8,-0.6,0.8l-2.6,0c-0.6,0,-0.8,-0.3,-0.9,-0.8l-2,-6.3l-8.6,0l-1.9,6.3c-0.1,0.5,-0.4,0.8,-0.9,0.8l-2.4,0c-0.5,0,-0.7,-0.3,-0.5,-0.8L796,650.1c0.2,-0.5,0.5,-0.7,1,-0.7Z" class="g2_1" />
<path d="M834.9,676.4c0,0.6,-0.2,0.8,-0.8,0.8l-2.2,0c-0.4,0,-0.6,-0.1,-0.8,-0.3L821.5,660c-0.9,-1.5,-1.4,-2.8,-1.5,-3l0,19.4c0,0.6,-0.2,0.8,-0.7,0.8l-2.3,0c-0.5,0,-0.7,-0.2,-0.7,-0.8l0,-26.3c0,-0.5,0.2,-0.7,0.7,-0.7l2.3,0c0.3,0,0.5,0.1,0.6,0.3l9.9,17.2c0.6,1,1.3,2.7,1.3,2.7l0,-19.5c0,-0.5,0.2,-0.7,0.8,-0.7l2.2,0c0.6,0,0.8,0.2,0.8,0.7Z" class="g2_1" />
<path d="M854.6,679.3c1.9,0,3.5,1,3.5,3.3c0,2.3,-1.6,3.3,-3.5,3.3l-4.6,0c-0.6,0,-0.8,-0.2,-0.8,-0.8l0,-0.8c0,-0.6,0.2,-0.8,0.8,-0.8l4,0c0.7,0,1.3,-0.1,1.3,-0.9c0,-0.9,-0.6,-0.9,-1.3,-0.9l-2.7,0c-0.9,0,-1.2,-0.3,-1,-1l0.8,-3.3c-4.9,-0.7,-6.4,-3.3,-6.4,-6.2l0,-15.9c0,-3.3,2,-6.3,9.1,-6.3c7,0,9,3,9,6.3l0,2c0,0.6,-0.2,0.9,-0.7,0.9l-2.4,0c-0.5,0,-0.7,-0.3,-0.7,-0.9l0,-1.3c0,-2.2,-1.5,-3.6,-5.2,-3.6c-3.7,0,-5,1.4,-5,3.6l0,14.6c0,2.2,1.3,3.5,5,3.5c3.7,0,5.2,-1.3,5.2,-3.5l0,-1.9c0,-0.6,0.2,-0.8,0.7,-0.8l2.4,0c0.5,0,0.7,0.2,0.7,0.8l0,2.5c0,3.4,-2,6.3,-9,6.3l-0.1,0l-0.5,1.8Z" class="g2_1" />
<path d="M880.4,659.4c-0.5,-1.5,-1.1,-5.5,-1.1,-5.9c-0.1,0.3,-0.6,4.1,-1.2,5.9l-2.3,7.5l6.9,0Zm0.2,-10c0.6,0,0.9,0.2,1,0.7l8,26.3c0.1,0.5,-0.1,0.8,-0.7,0.8l-2.5,0c-0.6,0,-0.8,-0.3,-0.9,-0.8l-2,-6.3l-8.6,0l-1.9,6.3c-0.1,0.5,-0.4,0.8,-0.9,0.8l-2.4,0c-0.5,0,-0.7,-0.3,-0.5,-0.8l7.9,-26.3c0.2,-0.5,0.5,-0.7,1,-0.7Z" class="g2_1" />

<title>maosanta_logotipo_RGB_azul-negativo Page1</title>
</svg>
